<?xml version="1.0"?><svg viewBox="0 0 128 128" xmlns="http://www.w3.org/2000/svg"><defs><style>.cls-1{fill:#add65c;}.cls-2{fill:#9c3;}.cls-3{fill:#80ab2b;}.cls-4{fill:#666;}.cls-5{fill:#333;}.cls-6{fill:#4d4d4d;}.cls-7{fill:#1f1f1f;}</style></defs><title/><g data-name="04 Highlighter" id="_04_Highlighter"><path class="cls-1" d="M50,109.27,19.39,78.62,87.07,18.11a5.69,5.69,0,0,1,7.81.22l15.45,15.45a5.69,5.69,0,0,1,.22,7.81Z"/><path class="cls-2" d="M28.95,105.46,23.2,99.71l-6.92,6.92a1,1,0,0,0,.22,1.51l5.73,3.09a1,1,0,0,0,1.12-.16Z"/><path class="cls-3" d="M22.27,100.64c3.6,5.88,3.92,4.26-1.06,9.24a1,1,0,0,1-1.12.16l2.14,1.17a1,1,0,0,0,1.13-.16l5.6-5.6A54.73,54.73,0,0,0,22.27,100.64Z"/><polygon class="cls-4" points="56.32 102.28 26.38 72.34 19.39 78.62 21.46 99.84 28.82 107.2 50.04 109.27 56.32 102.28"/><path class="cls-2" d="M50,109.27,19.39,78.62,87.07,18.11a5.69,5.69,0,0,1,7.81.22l15.45,15.45a5.69,5.69,0,0,1,.22,7.81Z"/><path class="cls-1" d="M28.4,74.36l0,0L89.09,20.13a5.69,5.69,0,0,1,7.81.22l-2-2a5.69,5.69,0,0,0-7.81-.22L26.4,72.36l0,0-7,6.28,2.07,21.22,2,2L21.41,80.64Z"/><path class="cls-3" d="M110.33,33.77l-2.85-2.85a5.69,5.69,0,0,1,.22,7.81L57,95.48a2.8,2.8,0,0,1-3.93.25L28.4,74.36,53.47,99.43l-6.28,7L26,104.35l2.85,2.85L50,109.27l6.28-7,0,0,54.25-60.68A5.69,5.69,0,0,0,110.33,33.77Z"/><polygon class="cls-5" points="56.32 102.28 26.38 72.34 19.39 78.62 21.46 99.84 28.82 107.2 50.04 109.27 56.32 102.28"/><path class="cls-6" d="M28.4,74.36l-2-2-7,6.28,2.07,21.22,2,2L21.41,80.64Z"/><path class="cls-7" d="M56.3,102.26l-2.83-2.83-6.28,7L21.41,80.64l21.11,22.92a1.37,1.37,0,0,1-1.14,2.29L26,104.35l2.85,2.85L50,109.27l6.28-7Z"/><polygon class="cls-6" points="26.38 72.34 19.39 78.62 50.04 109.27 56.32 102.28 26.38 72.34"/><path class="cls-4" d="M28.4,74.36l-2-2-7,6.28,2,2Z"/><polygon class="cls-5" points="53.47 99.43 47.19 106.42 50.04 109.27 56.32 102.28 56.3 102.26 53.47 99.43"/></g></svg>